<svg xmlns="http://www.w3.org/2000/svg" width="66" height="66" fill="none"><circle cx="32.999" cy="32.999" r="28.8" fill="#4BB4B3"/><path stroke="#4BB4B3" stroke-linecap="round" stroke-width=".8" d="M1 33c0 17.673 14.327 32 32 32 17.673 0 32-14.327 32-32C65 15.327 50.673 1 33 1M21 3.326a31.9 31.9 0 0 0-5.2 2.685M2.6 22.98a32.047 32.047 0 0 1 10-14.637"/><path fill="#fff" d="m28.2 39.722-5.6-5.6a1.574 1.574 0 0 0-2.24 0 1.574 1.574 0 0 0 0 2.24l6.705 6.704a1.593 1.593 0 0 0 2.256 0l16.96-16.944a1.574 1.574 0 0 0 0-2.24 1.574 1.574 0 0 0-2.24 0L28.2 39.722Z"/></svg>